<?xml version="1.0" standalone="no"?>
<!DOCTYPE svg PUBLIC "-//W3C//DTD SVG 20010904//EN"
 "http://www.w3.org/TR/2001/REC-SVG-20010904/DTD/svg10.dtd">
<svg version="1.0" xmlns="http://www.w3.org/2000/svg"
 width="300.000000pt" height="300.000000pt" viewBox="0 0 300.000000 300.000000"
 preserveAspectRatio="xMidYMid meet">
<metadata>
Created by potrace 1.10, written by Peter Selinger 2001-2011
</metadata>
<g transform="translate(0.000000,300.000000) scale(0.100000,-0.100000)"
fill="#ffff" stroke="none">
<path d="M1373 2725 c-149 -27 -314 -97 -433 -185 -92 -68 -218 -201 -278
-293 -132 -202 -192 -408 -192 -658 0 -841 828 -1396 1545 -1036 144 72 312
218 405 353 71 103 146 264 177 381 35 131 44 391 19 526 -88 469 -445 834
-891 912 -105 18 -253 18 -352 0z m343 -40 c112 -20 168 -37 273 -88 270 -129
481 -391 569 -706 25 -90 27 -109 27 -301 0 -186 -2 -213 -24 -290 -92 -328
-299 -584 -578 -717 -374 -178 -789 -116 -1111 165 -139 122 -277 351 -328
547 -31 118 -44 352 -25 471 94 605 630 1016 1197 919z"/>
<path d="M1395 2625 c-95 -15 -170 -41 -268 -91 -108 -55 -153 -89 -253 -188
-135 -137 -221 -288 -276 -491 -25 -94 -35 -314 -19 -426 41 -277 190 -531
406 -692 282 -211 643 -251 952 -107 303 142 515 419 579 759 19 99 21 284 5
384 -36 216 -144 427 -296 578 -231 228 -523 324 -830 274z m375 -53 c284 -72
526 -288 645 -576 61 -148 78 -244 77 -431 -2 -424 -274 -808 -667 -940 -75
-25 -242 -47 -315 -42 -141 11 -237 35 -335 84 -217 109 -369 263 -467 473
-80 170 -93 236 -93 455 1 209 16 282 90 441 58 125 104 192 196 285 143 143
313 234 507 269 73 14 277 3 362 -18z"/>
<path d="M823 2134 c-29 -29 -28 -48 8 -174 37 -133 60 -215 64 -233 2 -9 13
-47 24 -85 12 -37 30 -100 41 -140 27 -93 47 -112 120 -112 77 0 94 19 129
145 6 22 18 67 28 100 9 33 18 65 19 72 1 6 7 28 14 47 20 61 22 57 70 -109
11 -38 24 -81 28 -95 11 -36 5 -55 -23 -70 -13 -7 -27 -26 -31 -42 -5 -26 -10
-29 -33 -25 -29 6 -38 2 -59 -25 -11 -13 -10 -23 2 -53 18 -42 9 -78 -13 -51
-7 8 -16 27 -20 42 -9 36 -25 40 -50 13 -19 -20 -22 -21 -38 -7 -30 25 -53 29
-88 12 -21 -10 -38 -27 -44 -46 -16 -47 -12 -68 5 -27 16 39 55 63 85 54 20
-7 49 -53 49 -80 0 -34 16 -12 33 45 9 33 22 60 27 60 6 0 8 -11 4 -25 -4 -16
2 -49 17 -87 l22 -61 25 54 c24 54 33 121 19 136 -5 4 -12 1 -17 -7 -8 -13
-10 -12 -10 3 0 26 30 34 47 11 21 -27 11 -76 -33 -168 -30 -63 -39 -75 -45
-60 -4 10 -15 40 -25 67 -9 26 -20 47 -24 47 -8 0 -30 -100 -30 -137 0 -13 -4
-23 -8 -23 -5 0 -9 27 -9 60 -1 73 -28 134 -61 138 -32 5 -52 -15 -51 -52 0
-29 1 -30 11 -8 23 46 63 16 74 -56 14 -95 32 -114 62 -63 l16 29 27 -19 28
-19 29 31 c28 30 31 31 51 16 24 -16 53 -11 114 19 16 8 37 14 47 14 11 0 30
5 44 11 34 16 47 90 21 119 -22 24 -27 24 -68 6 -18 -8 -49 -16 -69 -19 -37
-6 -38 -5 -38 28 0 23 9 43 26 61 l25 28 35 -19 c34 -18 103 -23 143 -10 21 6
21 3 21 -124 0 -71 -3 -137 -6 -146 -4 -8 -22 -22 -40 -30 -45 -19 -54 -43
-24 -67 21 -17 41 -19 214 -18 213 2 266 9 340 45 95 46 151 111 186 215 51
152 10 337 -97 430 -32 28 -105 69 -138 76 -65 15 -121 22 -203 23 -53 1 -101
6 -106 11 -9 9 -7 17 33 160 38 132 38 134 -1 164 -19 14 -46 26 -60 26 -33 0
-66 -28 -72 -60 -3 -14 -19 -76 -35 -139 -17 -62 -31 -122 -31 -133 0 -11 -14
-31 -30 -45 -29 -24 -30 -27 -14 -44 19 -21 11 -60 -8 -41 -6 6 -12 19 -13 29
0 10 -4 23 -7 29 -4 5 -16 43 -27 84 -66 245 -70 252 -154 252 -88 1 -96 -10
-151 -212 -43 -154 -52 -180 -65 -180 -5 0 -11 10 -14 23 -2 12 -21 83 -40
157 -20 74 -43 159 -50 188 -19 70 -40 92 -89 92 -28 0 -46 -7 -65 -26z m107
-9 c0 -14 134 -546 147 -585 3 -8 7 -10 9 -5 1 6 35 126 75 268 l72 257 61 0
61 0 60 -218 c32 -119 66 -239 74 -267 l14 -50 22 85 c15 61 26 86 38 88 15 3
17 -8 17 -106 0 -60 -5 -123 -11 -141 -11 -30 -13 -31 -69 -31 -57 0 -59 1
-69 33 -29 95 -131 467 -131 481 0 9 -4 16 -10 16 -5 0 -10 -8 -10 -18 0 -9
-31 -127 -70 -262 -38 -135 -70 -246 -70 -248 0 -2 -28 -2 -61 0 l-62 3 -88
315 c-49 173 -92 327 -95 341 -5 24 -2 28 37 42 57 20 59 20 59 2z m820 -21
c0 -3 -60 -222 -76 -276 -3 -11 -19 -17 -49 -20 -25 -2 -45 1 -45 6 0 5 19 80
41 166 l42 158 43 -15 c24 -8 44 -17 44 -19z m160 -348 c47 -2 106 -12 132
-21 68 -24 132 -85 170 -163 30 -60 33 -75 33 -157 0 -112 -13 -157 -69 -233
-35 -47 -58 -66 -108 -91 -84 -41 -158 -51 -370 -51 -152 0 -178 2 -178 15 0
11 11 15 39 15 67 0 66 -3 66 337 0 290 -1 305 -19 319 -11 8 -35 14 -53 14
-21 0 -33 5 -33 14 0 14 122 14 390 2z m-513 -303 c2 -6 -6 -13 -19 -15 -29
-4 -54 -55 -63 -130 -7 -62 1 -122 16 -112 15 9 10 -13 -6 -26 -12 -10 -16 -7
-26 16 -18 50 8 203 46 260 16 25 45 29 52 7z m107 -166 c11 -31 -16 -80 -42
-75 -24 5 -28 70 -6 92 21 22 37 16 48 -17z m-90 -13 c11 -29 6 -54 -15 -75
-16 -16 -23 -18 -35 -8 -16 13 -18 52 -4 80 13 23 46 25 54 3z"/>
<path d="M1748 1713 c-17 -4 -18 -28 -18 -312 l0 -308 46 -7 c108 -14 185 6
251 67 56 51 79 96 93 180 30 169 -45 325 -180 372 -40 14 -152 19 -192 8z
m166 -38 c84 -25 155 -107 169 -197 6 -43 -6 -57 -29 -34 -19 20 -29 20 -57 2
-12 -8 -40 -16 -62 -18 -35 -3 -40 0 -43 20 -5 36 15 75 48 94 36 21 39 50 6
67 -19 10 -27 10 -44 0 -26 -16 -35 -37 -57 -124 -17 -70 -60 -139 -73 -118
-4 6 -7 75 -6 153 0 128 2 144 19 156 24 18 64 18 129 -1z m34 -98 c2 -11 -1
-15 -10 -12 -34 13 -67 -71 -68 -172 0 -57 8 -86 21 -77 5 3 6 -2 3 -10 -7
-19 -34 -21 -34 -4 0 7 -7 2 -16 -10 -19 -27 -30 -28 -44 -1 -14 26 4 76 30
84 13 4 20 21 25 63 4 31 13 73 21 92 27 63 64 88 72 47z m98 -149 c4 -6 -4
-21 -18 -33 -18 -15 -23 -27 -17 -36 7 -11 15 -7 38 18 16 17 31 29 34 27 11
-11 -6 -120 -24 -155 -39 -79 -135 -133 -229 -130 -55 1 -67 16 -65 78 4 77 3
75 25 63 16 -9 35 -7 78 5 106 31 165 53 183 69 31 26 21 38 -12 14 -30 -23
-31 -23 -45 -3 -23 30 -1 95 32 95 7 0 16 -5 20 -12z m-80 -30 c4 -6 -5 -21
-21 -34 -26 -21 -27 -24 -11 -30 11 -4 21 -1 27 7 7 11 9 11 9 -3 0 -23 -49
-36 -61 -17 -10 16 -3 57 13 76 13 16 35 17 44 1z"/>
<path d="M1821 1348 c-4 -12 -6 -31 -3 -42 5 -18 6 -18 19 -1 15 22 17 65 3
65 -6 0 -14 -10 -19 -22z"/>
<path d="M1455 1280 c-9 -15 5 -52 18 -47 15 5 16 49 0 54 -6 2 -14 -1 -18 -7z"/>
<path d="M1366 1255 c-8 -22 13 -60 26 -47 12 12 7 54 -8 59 -6 2 -14 -3 -18
-12z"/>
</g>
</svg>
